# xmcd
#
# Track frame offsets:
# 150
# 12464
# 24939
# 36461
# 53603
# 66586
# 79986
# 93037
# 105000
# 116835
# 135661
# 149706
# 167979
# 180185
# 195333
# 208308
# 222764
# 239862
# 254109
# 278279
# 291945
# 303318
# 318163
#
# Disc length: 4422 seconds
#
#
# Revision: 0
# Processed by: cddbd v1.4PL0 Copyright (c) Steve Scherf et al.
# Submitted via: FreeRIP 2.35 
#
DISCID=53114417
DTITLE=Johnny Cash - The Essential Johnny Cash
DYEAR=1998
DGENRE=Country
TTITLE0=Folsom Prison Blues
TTITLE1=Cocaine Blues
TTITLE2=San Quentin #2
TTITLE3=A Boy Named Sue
TTITLE4=Wanted Man
TTITLE5=Singin' In Vietnam Talkin' Blues
TTITLE6=Man In Black
TTITLE7=What Is Truth
TTITLE8=Flesh And Blood
TTITLE9=Sunday Morning Coming Down
TTITLE10=Oney
TTITLE11=One Piece At A Time
TTITLE12=Hit The Road and Go
TTITLE13=Rockabilly Blues
TTITLE14=I Will Rock and Roll With You
TTITLE15=No Expectations
TTITLE16=(Ghost Riders) In The Sky
TTITLE17=Bull Rider
TTITLE18=Highway Patrolman
TTITLE19=After The Ball
TTITLE20=Without Love
TTITLE21=The Last Time
TTITLE22=I'm Gonna Sit On The Porch
EXTD=Colombia/Legacy - C3K 47991\nDisk 3 of 3\n YEAR: 1998 ID3G: 2 
EXTT0=
EXTT1=
EXTT2=
EXTT3=
EXTT4=
EXTT5=
EXTT6=
EXTT7=
EXTT8=
EXTT9=
EXTT10=
EXTT11=
EXTT12=
EXTT13=
EXTT14=
EXTT15=
EXTT16=
EXTT17=
EXTT18=
EXTT19=
EXTT20=
EXTT21=
EXTT22=
PLAYORDER=
